<svg width="269px" height="155px"
 viewBox="0.00 0.00 201.51 116.00" xmlns="http://www.w3.org/2000/svg" xmlns:xlink="http://www.w3.org/1999/xlink">
<g id="graph0" class="graph" transform=" rotate(0) translate(4 112)">
<title>%0</title>
<polygon fill="#ffffff" stroke="transparent" points="-4,4 -4,-112 197.5094,-112 197.5094,4 -4,4"/>
<!-- payment -->
<g id="node1" class="node">
<title>payment</title>
<ellipse fill="none" stroke="#000000" cx="44.2912" cy="-90" rx="44.0833" ry="18"/>
<text text-anchor="middle" x="44.2912" y="-85.8" font-family="Times,serif" font-size="14.00" fill="#000000">payment</text>
</g>
<!-- rabbitmq -->
<g id="node2" class="node">
<title>rabbitmq</title>
<ellipse fill="none" stroke="#000000" cx="97.2912" cy="-18" rx="45.806" ry="18"/>
<text text-anchor="middle" x="97.2912" y="-13.8" font-family="Times,serif" font-size="14.00" fill="#000000">rabbitmq</text>
</g>
<!-- payment&#45;&gt;rabbitmq -->
<g id="edge1" class="edge">
<title>payment&#45;&gt;rabbitmq</title>
<path fill="none" stroke="#0000ff" d="M57.121,-72.5708C63.5186,-63.8797 71.38,-53.2001 78.4468,-43.5998"/>
<polygon fill="#0000ff" stroke="#0000ff" points="81.2863,-45.6465 84.3958,-35.5182 75.6489,-41.4968 81.2863,-45.6465"/>
</g>
<!-- dispatch -->
<g id="node3" class="node">
<title>dispatch</title>
<ellipse fill="none" stroke="#000000" cx="150.2912" cy="-90" rx="43.4377" ry="18"/>
<text text-anchor="middle" x="150.2912" y="-85.8" font-family="Times,serif" font-size="14.00" fill="#000000">dispatch</text>
</g>
<!-- dispatch&#45;&gt;rabbitmq -->
<g id="edge2" class="edge">
<title>dispatch&#45;&gt;rabbitmq</title>
<path fill="none" stroke="#0000ff" d="M137.4613,-72.5708C131.0637,-63.8797 123.2023,-53.2001 116.1355,-43.5998"/>
<polygon fill="#0000ff" stroke="#0000ff" points="118.9334,-41.4968 110.1865,-35.5182 113.2961,-45.6465 118.9334,-41.4968"/>
</g>
</g>
</svg>
