<svg width="347px" height="251px"
 viewBox="0.00 0.00 260.01 188.00" xmlns="http://www.w3.org/2000/svg" xmlns:xlink="http://www.w3.org/1999/xlink">
<g id="graph0" class="graph" transform=" rotate(0) translate(4 184)">
<title>%0</title>
<polygon fill="#ffffff" stroke="transparent" points="-4,4 -4,-184 256.0075,-184 256.0075,4 -4,4"/>
<!-- config -->
<g id="node1" class="node">
<title>config</title>
<ellipse fill="none" stroke="#000000" cx="137.419" cy="-90" rx="35.9154" ry="18"/>
<text text-anchor="middle" x="137.419" y="-85.8" font-family="Times,serif" font-size="14.00" fill="#000000">config</text>
</g>
<!-- discovery -->
<g id="node2" class="node">
<title>discovery</title>
<ellipse fill="none" stroke="#000000" cx="137.419" cy="-18" rx="48.6559" ry="18"/>
<text text-anchor="middle" x="137.419" y="-13.8" font-family="Times,serif" font-size="14.00" fill="#000000">discovery</text>
</g>
<!-- config&#45;&gt;discovery -->
<g id="edge1" class="edge">
<title>config&#45;&gt;discovery</title>
<path fill="none" stroke="#0000ff" d="M137.419,-71.8314C137.419,-64.131 137.419,-54.9743 137.419,-46.4166"/>
<polygon fill="#0000ff" stroke="#0000ff" points="140.9191,-46.4132 137.419,-36.4133 133.9191,-46.4133 140.9191,-46.4132"/>
</g>
<!-- school_service -->
<g id="node3" class="node">
<title>school_service</title>
<ellipse fill="none" stroke="#000000" cx="68.419" cy="-162" rx="68.3382" ry="18"/>
<text text-anchor="middle" x="68.419" y="-157.8" font-family="Times,serif" font-size="14.00" fill="#000000">school_service</text>
</g>
<!-- school_service&#45;&gt;config -->
<g id="edge3" class="edge">
<title>school_service&#45;&gt;config</title>
<path fill="none" stroke="#0000ff" d="M85.4752,-144.2022C94.2525,-135.0434 105.0739,-123.7514 114.5637,-113.849"/>
<polygon fill="#0000ff" stroke="#0000ff" points="117.113,-116.2474 121.5051,-106.6058 112.0591,-111.4041 117.113,-116.2474"/>
</g>
<!-- school_service&#45;&gt;discovery -->
<g id="edge2" class="edge">
<title>school_service&#45;&gt;discovery</title>
<path fill="none" stroke="#0000ff" d="M70.8791,-143.9181C73.9641,-125.1257 80.376,-95.2648 92.419,-72 97.831,-61.5451 105.5543,-51.3016 113.0784,-42.5948"/>
<polygon fill="#0000ff" stroke="#0000ff" points="115.7661,-44.8406 119.8602,-35.0687 110.5659,-40.1546 115.7661,-44.8406"/>
</g>
<!-- school_ui -->
<g id="node4" class="node">
<title>school_ui</title>
<ellipse fill="none" stroke="#000000" cx="203.419" cy="-162" rx="48.6772" ry="18"/>
<text text-anchor="middle" x="203.419" y="-157.8" font-family="Times,serif" font-size="14.00" fill="#000000">school_ui</text>
</g>
<!-- school_ui&#45;&gt;config -->
<g id="edge5" class="edge">
<title>school_ui&#45;&gt;config</title>
<path fill="none" stroke="#0000ff" d="M187.778,-144.937C179.2726,-135.6584 168.6165,-124.0336 159.2995,-113.8696"/>
<polygon fill="#0000ff" stroke="#0000ff" points="161.8309,-111.4514 152.4935,-106.4449 156.6708,-116.1815 161.8309,-111.4514"/>
</g>
<!-- school_ui&#45;&gt;discovery -->
<g id="edge4" class="edge">
<title>school_ui&#45;&gt;discovery</title>
<path fill="none" stroke="#0000ff" d="M201.6903,-143.9193C199.3366,-125.1278 194.0045,-95.2676 182.419,-72 177.1717,-61.4615 169.489,-51.1974 161.9515,-42.4974"/>
<polygon fill="#0000ff" stroke="#0000ff" points="164.4523,-40.0448 155.1442,-34.9843 159.2649,-44.7449 164.4523,-40.0448"/>
</g>
</g>
</svg>
