<svg width="90px" height="251px"
 viewBox="0.00 0.00 67.61 188.00" xmlns="http://www.w3.org/2000/svg" xmlns:xlink="http://www.w3.org/1999/xlink">
<g id="graph0" class="graph" transform=" rotate(0) translate(4 184)">
<title>%0</title>
<polygon fill="#ffffff" stroke="transparent" points="-4,4 -4,-184 63.6134,-184 63.6134,4 -4,4"/>
<!-- api -->
<g id="node1" class="node">
<title>api</title>
<ellipse fill="none" stroke="#000000" cx="29.8067" cy="-90" rx="27" ry="18"/>
<text text-anchor="middle" x="29.8067" y="-85.8" font-family="Times,serif" font-size="14.00" fill="#000000">api</text>
</g>
<!-- db -->
<g id="node2" class="node">
<title>db</title>
<ellipse fill="none" stroke="#000000" cx="29.8067" cy="-18" rx="27" ry="18"/>
<text text-anchor="middle" x="29.8067" y="-13.8" font-family="Times,serif" font-size="14.00" fill="#000000">db</text>
</g>
<!-- api&#45;&gt;db -->
<g id="edge1" class="edge">
<title>api&#45;&gt;db</title>
<path fill="none" stroke="#0000ff" d="M29.8067,-71.8314C29.8067,-64.131 29.8067,-54.9743 29.8067,-46.4166"/>
<polygon fill="#0000ff" stroke="#0000ff" points="33.3068,-46.4132 29.8067,-36.4133 26.3068,-46.4133 33.3068,-46.4132"/>
</g>
<!-- front -->
<g id="node3" class="node">
<title>front</title>
<ellipse fill="none" stroke="#000000" cx="29.8067" cy="-162" rx="29.6147" ry="18"/>
<text text-anchor="middle" x="29.8067" y="-157.8" font-family="Times,serif" font-size="14.00" fill="#000000">front</text>
</g>
<!-- front&#45;&gt;api -->
<g id="edge2" class="edge">
<title>front&#45;&gt;api</title>
<path fill="none" stroke="#0000ff" d="M29.8067,-143.8314C29.8067,-136.131 29.8067,-126.9743 29.8067,-118.4166"/>
<polygon fill="#0000ff" stroke="#0000ff" points="33.3068,-118.4132 29.8067,-108.4133 26.3068,-118.4133 33.3068,-118.4132"/>
</g>
</g>
</svg>
