<svg width="453px" height="155px"
 viewBox="0.00 0.00 339.55 116.00" xmlns="http://www.w3.org/2000/svg" xmlns:xlink="http://www.w3.org/1999/xlink">
<g id="graph0" class="graph" transform=" rotate(0) translate(4 112)">
<title>%0</title>
<polygon fill="#ffffff" stroke="transparent" points="-4,4 -4,-112 335.5547,-112 335.5547,4 -4,4"/>
<!-- author_book_api -->
<g id="node1" class="node">
<title>author_book_api</title>
<ellipse fill="none" stroke="#000000" cx="76.4768" cy="-90" rx="76.4536" ry="18"/>
<text text-anchor="middle" x="76.4768" y="-85.8" font-family="Times,serif" font-size="14.00" fill="#000000">author_book_api</text>
</g>
<!-- zipkin -->
<g id="node2" class="node">
<title>zipkin</title>
<ellipse fill="none" stroke="#000000" cx="156.4768" cy="-18" rx="35.3528" ry="18"/>
<text text-anchor="middle" x="156.4768" y="-13.8" font-family="Times,serif" font-size="14.00" fill="#000000">zipkin</text>
</g>
<!-- author_book_api&#45;&gt;zipkin -->
<g id="edge1" class="edge">
<title>author_book_api&#45;&gt;zipkin</title>
<path fill="none" stroke="#0000ff" d="M95.8426,-72.5708C106.513,-62.9674 119.8813,-50.936 131.3482,-40.6157"/>
<polygon fill="#0000ff" stroke="#0000ff" points="133.8351,-43.0864 138.9266,-33.7951 129.1523,-37.8833 133.8351,-43.0864"/>
</g>
<!-- mysql -->
<g id="node3" class="node">
<title>mysql</title>
<ellipse fill="none" stroke="#000000" cx="68.4768" cy="-18" rx="34.7903" ry="18"/>
<text text-anchor="middle" x="68.4768" y="-13.8" font-family="Times,serif" font-size="14.00" fill="#000000">mysql</text>
</g>
<!-- author_book_api&#45;&gt;mysql -->
<g id="edge2" class="edge">
<title>author_book_api&#45;&gt;mysql</title>
<path fill="none" stroke="#0000ff" d="M74.4581,-71.8314C73.6025,-64.131 72.5851,-54.9743 71.6342,-46.4166"/>
<polygon fill="#0000ff" stroke="#0000ff" points="75.1057,-45.9656 70.5227,-36.4133 68.1485,-46.7386 75.1057,-45.9656"/>
</g>
<!-- book_review_api -->
<g id="node4" class="node">
<title>book_review_api</title>
<ellipse fill="none" stroke="#000000" cx="253.4768" cy="-90" rx="78.1559" ry="18"/>
<text text-anchor="middle" x="253.4768" y="-85.8" font-family="Times,serif" font-size="14.00" fill="#000000">book_review_api</text>
</g>
<!-- book_review_api&#45;&gt;zipkin -->
<g id="edge3" class="edge">
<title>book_review_api&#45;&gt;zipkin</title>
<path fill="none" stroke="#0000ff" d="M229.9958,-72.5708C216.3097,-62.412 198.9633,-49.5364 184.5573,-38.8433"/>
<polygon fill="#0000ff" stroke="#0000ff" points="186.5808,-35.9864 176.465,-32.8366 182.4086,-41.6072 186.5808,-35.9864"/>
</g>
<!-- mongodb -->
<g id="node5" class="node">
<title>mongodb</title>
<ellipse fill="none" stroke="#000000" cx="257.4768" cy="-18" rx="47.539" ry="18"/>
<text text-anchor="middle" x="257.4768" y="-13.8" font-family="Times,serif" font-size="14.00" fill="#000000">mongodb</text>
</g>
<!-- book_review_api&#45;&gt;mongodb -->
<g id="edge4" class="edge">
<title>book_review_api&#45;&gt;mongodb</title>
<path fill="none" stroke="#0000ff" d="M254.4862,-71.8314C254.914,-64.131 255.4227,-54.9743 255.8981,-46.4166"/>
<polygon fill="#0000ff" stroke="#0000ff" points="259.3937,-46.592 256.4538,-36.4133 252.4044,-46.2037 259.3937,-46.592"/>
</g>
</g>
</svg>
