<svg width="752px" height="251px"
 viewBox="0.00 0.00 564.22 188.00" xmlns="http://www.w3.org/2000/svg" xmlns:xlink="http://www.w3.org/1999/xlink">
<g id="graph0" class="graph" transform=" rotate(0) translate(4 184)">
<title>%0</title>
<polygon fill="#ffffff" stroke="transparent" points="-4,4 -4,-184 560.2205,-184 560.2205,4 -4,4"/>
<!-- odm_decisionserverconsole -->
<g id="node1" class="node">
<title>odm_decisionserverconsole</title>
<ellipse fill="none" stroke="#000000" cx="204.4176" cy="-90" rx="118.1024" ry="18"/>
<text text-anchor="middle" x="204.4176" y="-85.8" font-family="Times,serif" font-size="14.00" fill="#000000">odm_decisionserverconsole</text>
</g>
<!-- dbserver -->
<g id="node2" class="node">
<title>dbserver</title>
<ellipse fill="none" stroke="#000000" cx="277.4176" cy="-18" rx="44.0622" ry="18"/>
<text text-anchor="middle" x="277.4176" y="-13.8" font-family="Times,serif" font-size="14.00" fill="#000000">dbserver</text>
</g>
<!-- odm_decisionserverconsole&#45;&gt;dbserver -->
<g id="edge1" class="edge">
<title>odm_decisionserverconsole&#45;&gt;dbserver</title>
<path fill="none" stroke="#0000ff" d="M222.4625,-72.2022C231.614,-63.1761 242.866,-52.0783 252.7999,-42.2804"/>
<polygon fill="#0000ff" stroke="#0000ff" points="255.4209,-44.6113 260.0829,-35.0972 250.5054,-39.6275 255.4209,-44.6113"/>
</g>
<!-- odm_decisionrunner -->
<g id="node3" class="node">
<title>odm_decisionrunner</title>
<ellipse fill="none" stroke="#000000" cx="90.4176" cy="-162" rx="90.3352" ry="18"/>
<text text-anchor="middle" x="90.4176" y="-157.8" font-family="Times,serif" font-size="14.00" fill="#000000">odm_decisionrunner</text>
</g>
<!-- odm_decisionrunner&#45;&gt;odm_decisionserverconsole -->
<g id="edge2" class="edge">
<title>odm_decisionrunner&#45;&gt;odm_decisionserverconsole</title>
<path fill="none" stroke="#0000ff" d="M117.7234,-144.7542C132.7296,-135.2766 151.5454,-123.393 167.8097,-113.1207"/>
<polygon fill="#0000ff" stroke="#0000ff" points="169.9566,-115.9045 176.5426,-107.6053 166.2187,-109.986 169.9566,-115.9045"/>
</g>
<!-- odm_decisionrunner&#45;&gt;dbserver -->
<g id="edge3" class="edge">
<title>odm_decisionrunner&#45;&gt;dbserver</title>
<path fill="none" stroke="#0000ff" d="M80.6537,-143.8079C71.5584,-124.0908 61.5798,-92.6811 77.4176,-72 95.2901,-48.6618 171.8835,-33.1109 224.92,-24.9179"/>
<polygon fill="#0000ff" stroke="#0000ff" points="225.4895,-28.3717 234.8589,-23.4254 224.45,-21.4494 225.4895,-28.3717"/>
</g>
<!-- odm_decisionserverruntime -->
<g id="node4" class="node">
<title>odm_decisionserverruntime</title>
<ellipse fill="none" stroke="#000000" cx="333.4176" cy="-162" rx="118.6819" ry="18"/>
<text text-anchor="middle" x="333.4176" y="-157.8" font-family="Times,serif" font-size="14.00" fill="#000000">odm_decisionserverruntime</text>
</g>
<!-- odm_decisionserverruntime&#45;&gt;odm_decisionserverconsole -->
<g id="edge4" class="edge">
<title>odm_decisionserverruntime&#45;&gt;odm_decisionserverconsole</title>
<path fill="none" stroke="#0000ff" d="M302.1903,-144.5708C284.8886,-134.914 263.1883,-122.8023 244.6296,-112.4439"/>
<polygon fill="#0000ff" stroke="#0000ff" points="246.2422,-109.3358 235.8044,-107.5182 242.8306,-115.4481 246.2422,-109.3358"/>
</g>
<!-- odm_decisionserverruntime&#45;&gt;dbserver -->
<g id="edge5" class="edge">
<title>odm_decisionserverruntime&#45;&gt;dbserver</title>
<path fill="none" stroke="#0000ff" d="M336.8305,-143.9253C339.5243,-125.1387 341.3659,-95.2824 331.4176,-72 326.2895,-59.9986 317.1208,-49.2425 307.7772,-40.5485"/>
<polygon fill="#0000ff" stroke="#0000ff" points="309.8113,-37.6786 299.9723,-33.7486 305.213,-42.9565 309.8113,-37.6786"/>
</g>
<!-- odm_decisioncenter -->
<g id="node5" class="node">
<title>odm_decisioncenter</title>
<ellipse fill="none" stroke="#000000" cx="467.4176" cy="-90" rx="88.6063" ry="18"/>
<text text-anchor="middle" x="467.4176" y="-85.8" font-family="Times,serif" font-size="14.00" fill="#000000">odm_decisioncenter</text>
</g>
<!-- odm_decisioncenter&#45;&gt;dbserver -->
<g id="edge6" class="edge">
<title>odm_decisioncenter&#45;&gt;dbserver</title>
<path fill="none" stroke="#0000ff" d="M425.2504,-74.0209C393.7437,-62.0815 350.8689,-45.8342 319.4054,-33.9112"/>
<polygon fill="#0000ff" stroke="#0000ff" points="320.6238,-30.6301 310.0325,-30.3593 318.1433,-37.1759 320.6238,-30.6301"/>
</g>
</g>
</svg>
